<svg width="92" height="92" viewBox="0 0 92 92" fill="none" xmlns="http://www.w3.org/2000/svg">
<path d="M45.8413 0.0656162H80.3428C81.8682 0.052408 83.381 0.343125 84.793 0.920809C86.2049 1.49849 87.4876 2.35158 88.5663 3.43028C89.645 4.50899 90.4981 5.79172 91.0758 7.20363C91.6535 8.61554 91.9442 10.1284 91.931 11.6538V46.1553C91.928 58.2948 87.1042 69.9362 78.5203 78.5202C69.9364 87.1041 58.2949 91.9278 46.1554 91.9308H45.8951C39.8797 91.9375 33.9221 90.7589 28.3624 88.4622C22.8028 86.1655 17.7502 82.7958 13.4934 78.5457C9.23686 74.295 5.86022 69.2469 3.55665 63.6899C1.25308 58.133 0.0677959 52.1764 0.0686039 46.1609C0.0686039 20.7942 20.5284 0.334449 45.8441 0.0741038L45.8413 0.0656162Z" fill="#25C16F"/>
<path d="M45.8413 20.5254C40.2627 20.5254 34.9126 22.7415 30.9679 26.6862C27.0232 30.6309 24.8071 35.981 24.8071 41.5596V55.8616C24.8489 57.7038 25.5993 59.4589 26.9022 60.7619C28.2052 62.0648 29.9603 62.8152 31.8025 62.857H37.7536V46.4439H29.7169V41.8511C30.2064 33.2003 37.3631 26.4369 46.0281 26.4369C54.6931 26.4369 61.8752 33.2286 62.3393 41.8511V46.4439H54.1978V62.857H59.5746V63.1174C59.5476 64.8254 58.8571 66.4559 57.6491 67.6638C56.4412 68.8717 54.8107 69.5622 53.1027 69.5892H46.679C46.1583 69.5892 45.5838 69.8496 45.5838 70.3731C45.6121 70.9391 46.0847 71.4428 46.679 71.4682H53.1508C55.3612 71.4541 57.4771 70.5698 59.0402 69.0067C60.6032 67.4437 61.4876 65.3278 61.5017 63.1174V62.5967C63.0364 62.2463 64.4056 61.3829 65.3832 60.1491C66.3608 58.9152 66.8882 57.3849 66.8784 55.8107V41.8228C67.1699 29.9714 57.7748 20.5254 45.8413 20.5254Z" fill="white"/>
</svg>
