<svg width="90" height="128" viewBox="0 0 90 128" fill="none" xmlns="http://www.w3.org/2000/svg">
<g clip-path="url(#clip0_154_97)">
<path d="M53.65 73.3C51.05 70.7 51.05 66.6 53.65 64L63.65 54C66.25 51.4 70.35 51.4 72.95 54C75.55 56.6 75.55 60.7 72.95 63.3L62.95 73.3C60.35 75.9 56.15 75.9 53.65 73.3Z" stroke="#454BFF" stroke-width="4" stroke-miterlimit="10" stroke-linecap="round" stroke-linejoin="round"/>
<path d="M53.65 64L81.75 35.9C84.35 33.3 84.35 29.2 81.75 26.6C79.15 24 75.05 24 72.45 26.6C72.45 26.6 47.15 51.9 44.35 54.7C40.15 58.9 32.55 61.8 28.65 60" stroke="#454BFF" stroke-width="4" stroke-miterlimit="10" stroke-linecap="round" stroke-linejoin="round"/>
<path d="M62.95 82.6C60.35 80 60.35 75.9 62.95 73.3L70.35 65.9C72.95 63.3 77.05 63.3 79.65 65.9C82.25 68.5 82.25 72.6 79.65 75.2L72.25 82.6C69.65 85.2 65.45 85.2 62.95 82.6Z" stroke="#454BFF" stroke-width="4" stroke-miterlimit="10" stroke-linecap="round" stroke-linejoin="round"/>
<path d="M69.15 94.9C66.55 92.3 66.55 88.2 69.15 85.6L76.55 78.2C79.15 75.6 83.25 75.6 85.85 78.2C88.45 80.8 88.45 84.9 85.85 87.5L78.45 94.9C75.95 97.4 71.75 97.4 69.15 94.9Z" stroke="#454BFF" stroke-width="4" stroke-miterlimit="10" stroke-linecap="round" stroke-linejoin="round"/>
<path d="M17.15 78C16.95 86.5 20.05 95 26.55 101.5C39.05 114 59.35 114 71.85 101.5L84.15 89.2" stroke="#454BFF" stroke-width="4" stroke-miterlimit="10" stroke-linecap="round" stroke-linejoin="round"/>
<path d="M31.15 68C29.85 62.5 27.65 54.9 20.75 47.9C17.05 44.1 10.65 45.2 8.44999 50C7.84999 51.4 8.04999 53 8.94999 54.3C11.85 58.2 17.95 67.6 17.25 78.1" stroke="#454BFF" stroke-width="4" stroke-miterlimit="10" stroke-linecap="round" stroke-linejoin="round"/>
<path d="M46.25 111.5L31.95 125.8C31.95 125.8 23.85 127.9 12.05 116.2C0.250012 104.5 2.45001 96.3 2.45001 96.3L16.45 82.3" stroke="#454BFF" stroke-width="4" stroke-miterlimit="10" stroke-linecap="round" stroke-linejoin="round"/>
<path d="M38.45 18.1L40.35 33.4" stroke="#454BFF" stroke-width="4" stroke-miterlimit="10" stroke-linecap="round" stroke-linejoin="round"/>
<path d="M61.45 11.7L51.35 33.4" stroke="#454BFF" stroke-width="4" stroke-miterlimit="10" stroke-linecap="round" stroke-linejoin="round"/>
<path d="M16.85 11.7L31.65 43.4" stroke="#454BFF" stroke-width="4" stroke-miterlimit="10" stroke-linecap="round" stroke-linejoin="round"/>
<path d="M40.35 93.4C40.35 102.9 30.05 104.7 24.25 99.1" stroke="#454BFF" stroke-width="4" stroke-miterlimit="10" stroke-linecap="round" stroke-linejoin="round"/>
<path d="M33.35 2L28.85 6.5" stroke="#454BFF" stroke-width="4" stroke-miterlimit="10" stroke-linecap="round" stroke-linejoin="round"/>
<path d="M28.85 2L33.35 6.5" stroke="#454BFF" stroke-width="4" stroke-miterlimit="10" stroke-linecap="round" stroke-linejoin="round"/>
</g>
<defs>
<clipPath id="clip0_154_97">
<rect width="89.5" height="128" fill="white" transform="translate(0.25)"/>
</clipPath>
</defs>
</svg>
