<svg width="112" height="122" viewBox="0 0 112 122" fill="none" xmlns="http://www.w3.org/2000/svg">
<path d="M47.7984 46.8109C52.6556 44.0603 58.5951 44.0398 63.4711 46.7569L103.245 68.9206C114.194 75.0215 114.194 90.7712 103.246 96.873L63.4718 119.041C58.5955 121.759 52.6552 121.738 47.7976 118.987L8.65811 96.8209C-2.16233 90.6928 -2.16212 75.1039 8.65849 68.9762L47.7984 46.8109Z" fill="#00837D"/>
<path d="M47.7984 24.7684C52.6556 22.0178 58.5951 21.9973 63.4711 24.7144L103.245 46.8781C114.194 52.979 114.194 68.7288 103.246 74.8305L63.4718 96.9985C58.5955 99.7163 52.6552 99.696 47.7976 96.9449L8.65811 74.7785C-2.16233 68.6504 -2.16212 53.0615 8.65849 46.9337L47.7984 24.7684Z" fill="#C8FAFF"/>
<path d="M47.7984 2.0775C52.6556 -0.673135 58.5951 -0.693605 63.4711 2.02348L103.245 24.1872C114.194 30.2881 114.194 46.0378 103.246 52.1396L63.4718 74.3076C58.5955 77.0254 52.6552 77.0051 47.7976 74.254L8.65811 52.0875C-2.16233 45.9594 -2.16212 30.3705 8.65849 24.2428L47.7984 2.0775Z" fill="#00837D" fill-opacity="0.2"/>
</svg>
