<svg xmlns="http://www.w3.org/2000/svg" fill="none" viewBox="0 0 61 60">
  <path fill="#20A849" d="M30.457 0h22.51c4.11 0 7.533 3.338 7.533 7.532v22.425c0 16.52-13.438 29.957-29.957 29.957C13.938 59.914.5 46.562.5 30.043v-.086C.5 13.437 13.938 0 30.457 0Z"/>
  <path fill="#fff" d="M39.701 17.803H24.722c-4.108 0-7.532 3.338-7.532 7.532V38.09c0 .941.77 1.626 1.627 1.626h20.798c4.109 0 7.533-3.338 7.533-7.532V25.25a7.452 7.452 0 0 0-7.447-7.447ZM34.31 33.81H23.44c-.77.086-1.541-.514-1.541-1.37-.086-.77.514-1.54 1.37-1.54h11.126c.77.085 1.37.77 1.37 1.54-.171.77-.77 1.284-1.455 1.37Zm6.59-7.104H23.44c-.77.085-1.541-.514-1.541-1.37-.086-.77.514-1.54 1.37-1.54h17.717c.77.085 1.37.77 1.37 1.54-.172.685-.685 1.284-1.456 1.37Z"/>
</svg>
