<svg xmlns="http://www.w3.org/2000/svg" fill="none" viewBox="0 0 62 60">
  <path fill="#25C16F" d="M30.893 0h23.286a7.98 7.98 0 0 1 3.003.559 7.777 7.777 0 0 1 2.547 1.639 7.49 7.49 0 0 1 1.694 2.464c.39.922.586 1.91.577 2.907v22.534c-.002 7.928-3.258 15.532-9.051 21.138-5.794 5.606-13.65 8.757-21.844 8.759h-.176a31.8 31.8 0 0 1-11.833-2.266 30.995 30.995 0 0 1-10.035-6.476 29.842 29.842 0 0 1-6.707-9.703A29.05 29.05 0 0 1 0 30.106C0 13.54 13.809.176 30.895.006L30.893 0Z"/>
  <path fill="#fff" d="M30.893 13.363c-3.765 0-7.376 1.447-10.039 4.024-2.662 2.576-4.158 6.07-4.158 9.714v9.341a4.604 4.604 0 0 0 1.414 3.2 4.912 4.912 0 0 0 3.308 1.369h4.016v-10.72H20.01v-3c.33-5.65 5.16-10.067 11.009-10.067 5.848 0 10.695 4.436 11.009 10.067v3h-5.495v10.72h3.628v.17a4.228 4.228 0 0 1-1.299 2.97 4.513 4.513 0 0 1-3.069 1.257h-4.335c-.351 0-.74.17-.74.512.02.37.339.699.74.715h4.368a5.769 5.769 0 0 0 3.975-1.607 5.402 5.402 0 0 0 1.661-3.847v-.34a4.69 4.69 0 0 0 2.62-1.599 4.425 4.425 0 0 0 1.009-2.833v-9.136c.197-7.74-6.144-13.91-14.198-13.91Z"/>
</svg>
