<svg xmlns="http://www.w3.org/2000/svg" fill="none" viewBox="0 0 64 70">
  <g clip-path="url(#a)">
    <path fill="#09C6FA" d="M43.025 5.326c4.066 0 8.133.013 12.204 0 2.054-.016 3.884.535 5.438 1.902 1.706 1.497 2.695 3.379 2.704 5.65.035 8.26.13 16.522-.024 24.778-.14 7.434-2.796 13.996-7.693 19.594-5.117 5.855-11.558 9.343-19.253 10.433-5.963.847-11.713.01-17.183-2.512-7.638-3.521-13.033-9.247-16.173-17.04C1.156 43.44.5 38.535 1.035 33.485c.704-6.627 3.239-12.452 7.605-17.473 4.23-4.835 9.465-8.051 15.664-9.687a31.211 31.211 0 0 1 8.095-.996c3.54.003 7.082.001 10.626-.003Zm-6.048 27.893c-2.386 0-4.77-.007-7.156.008-.415 0-.545-.072-.393-.517.587-1.73 1.14-3.47 1.708-5.207l1.75-5.362c.15-.464 0-.84-.403-1.067-.403-.228-.808-.144-1.112.235-.169.212-.321.437-.483.657l-8.338 11.64a1105.363 1105.363 0 0 1-3.328 4.622 1.134 1.134 0 0 0-.135 1.225c.207.446.588.615 1.053.634.198.007.398.006.596.006h13.443c.812 0 .827 0 .568.799a3511.63 3511.63 0 0 1-3.291 10.05c-.2.606-.105.981.33 1.224.435.242.813.138 1.208-.364.057-.07.109-.144.162-.218 3.947-5.47 7.892-10.942 11.834-16.413.296-.41.444-.837.193-1.312-.25-.475-.675-.648-1.215-.646-2.33.015-4.66.006-6.992.006Z"/>
    <path fill="#FBFEFE" d="M36.976 33.22c2.331 0 4.662.008 6.993-.007.54 0 .96.161 1.215.646.255.484.103.902-.193 1.312-3.947 5.47-7.892 10.94-11.834 16.413-.053.074-.105.148-.162.218-.399.5-.77.606-1.208.364-.44-.243-.53-.616-.33-1.223 1.1-3.35 2.196-6.7 3.291-10.051.259-.796.242-.8-.568-.8H20.737c-.199 0-.398 0-.596-.005-.465-.019-.846-.188-1.053-.634a1.135 1.135 0 0 1 .133-1.225 885.748 885.748 0 0 0 3.333-4.62c2.781-3.875 5.56-7.755 8.337-11.64.159-.221.31-.446.484-.658.303-.38.7-.467 1.111-.235.411.233.554.605.403 1.067l-1.75 5.362c-.567 1.736-1.12 3.476-1.707 5.207-.153.445-.022.52.392.517 2.382-.016 4.767-.009 7.152-.009Z"/>
  </g>
  <defs>
    <clipPath id="a">
      <path fill="#fff" d="M.5.527h63V70H.5z"/>
    </clipPath>
  </defs>
</svg>
