<svg xmlns="http://www.w3.org/2000/svg" fill="none" viewBox="0 0 61 60">
  <g clip-path="url(#a)">
    <path fill="#E37425" d="M30.457 59.914C13.937 59.914.5 46.476.5 29.957.5 13.437 13.938 0 30.457 0h22.425a7.489 7.489 0 0 1 7.532 7.532v22.425c0 16.52-13.438 29.957-29.957 29.957Z"/>
    <path fill="#fff" d="M30.8 14.979c3.252 0 5.82 2.653 5.82 5.82 0 3.167-2.653 5.82-5.82 5.82-3.167 0-5.82-2.653-5.82-5.82-.172-3.167 2.567-5.82 5.82-5.82ZM17.618 28.93l10.186 10.185v5.82h5.22v-5.82L43.382 28.93H17.618Zm35.35-17.204h-4.365V7.532H45.52v4.194h-4.365v3.167h4.365v4.28h3.082v-4.28h4.365v-3.167Z"/>
  </g>
  <defs>
    <clipPath id="a">
      <path fill="#fff" d="M.5 0h60v60H.5z"/>
    </clipPath>
  </defs>
</svg>
